<svg xmlns="http://www.w3.org/2000/svg" viewBox="0 0 1920 1080">
  <defs>
    <radialGradient id="a" cx="580" cy="420" r="640" gradientUnits="userSpaceOnUse">
      <stop offset="0%" stop-color="#3B82F6" stop-opacity=".82"/>
      <stop offset="55%" stop-color="#3B82F6" stop-opacity=".25"/>
      <stop offset="100%" stop-color="#3B82F6" stop-opacity="0"/>
    </radialGradient>
    <radialGradient id="b" cx="1530" cy="280" r="580" gradientUnits="userSpaceOnUse">
      <stop offset="0%" stop-color="#7C3AED" stop-opacity=".78"/>
      <stop offset="55%" stop-color="#7C3AED" stop-opacity=".22"/>
      <stop offset="100%" stop-color="#7C3AED" stop-opacity="0"/>
    </radialGradient>
    <radialGradient id="c" cx="960" cy="900" r="420" gradientUnits="userSpaceOnUse">
      <stop offset="0%" stop-color="#3B82F6" stop-opacity=".38"/>
      <stop offset="100%" stop-color="#3B82F6" stop-opacity="0"/>
    </radialGradient>
  </defs>
  <rect width="1920" height="1080" fill="url(#a)"/>
  <rect width="1920" height="1080" fill="url(#b)"/>
  <rect width="1920" height="1080" fill="url(#c)"/>
  <g fill="#fff">
    <circle cx="60"   cy="80"  r="2"   opacity=".62"/>
    <circle cx="200"  cy="155" r="1.5" opacity=".50"/>
    <circle cx="420"  cy="55"  r="1"   opacity=".45"/>
    <circle cx="690"  cy="175" r="2"   opacity=".58"/>
    <circle cx="920"  cy="80"  r="1"   opacity=".42"/>
    <circle cx="1130" cy="195" r="1.5" opacity=".55"/>
    <circle cx="1380" cy="70"  r="1"   opacity=".48"/>
    <circle cx="1600" cy="165" r="2"   opacity=".60"/>
    <circle cx="1840" cy="85"  r="1"   opacity=".45"/>
    <circle cx="150"  cy="285" r="1.5" opacity=".42"/>
    <circle cx="490"  cy="320" r="1"   opacity=".38"/>
    <circle cx="860"  cy="275" r="2"   opacity=".52"/>
    <circle cx="1240" cy="355" r="1"   opacity=".40"/>
    <circle cx="1720" cy="290" r="1.5" opacity=".45"/>
    <circle cx="320"  cy="455" r="1"   opacity=".38"/>
    <circle cx="1050" cy="480" r="1.5" opacity=".42"/>
    <circle cx="1870" cy="450" r="1"   opacity=".35"/>
    <circle cx="640"  cy="560" r="1"   opacity=".35"/>
    <circle cx="1400" cy="540" r="1"   opacity=".38"/>
    <circle cx="80"   cy="600" r="1.5" opacity=".32"/>
    <circle cx="1790" cy="620" r="1"   opacity=".30"/>
    <circle cx="760"  cy="680" r="1"   opacity=".28"/>
  </g>
</svg>
